<?xml version="1.0" encoding="UTF-8"?>
<svg width="48" height="48" version="1.1" viewBox="0 0 12.7 12.7" xmlns="http://www.w3.org/2000/svg" xmlns:cc="http://creativecommons.org/ns#" xmlns:dc="http://purl.org/dc/elements/1.1/" xmlns:rdf="http://www.w3.org/1999/02/22-rdf-syntax-ns#" xmlns:xlink="http://www.w3.org/1999/xlink">
 <defs>
  <linearGradient id="linearGradient4886">
   <stop stop-color="#34495e" offset="0"/>
   <stop stop-color="#2980b9" stop-opacity=".23451327" offset="1"/>
  </linearGradient>
  <linearGradient id="linearGradient3861" x1="24" x2="24" y1="294" y2="257" gradientTransform="matrix(.26458333 0 0 .25828372 0 -64.293749)" gradientUnits="userSpaceOnUse">
   <stop stop-color="#1d99f3" offset="0"/>
   <stop stop-color="#3daee9" offset="1"/>
  </linearGradient>
  <linearGradient id="linearGradient4824" x1="8.7066565" x2="57.365421" y1="10.199831" y2="58.858597" gradientTransform="scale(.26458333)" gradientUnits="userSpaceOnUse">
   <stop stop-color="#fcfcfc" offset="0"/>
   <stop stop-color="#fff" stop-opacity=".36725664" offset="1"/>
  </linearGradient>
  <linearGradient id="linearGradient4832" x1="7.5606313" x2="30.16894" y1="1.7317699" y2="24.340078" gradientTransform="scale(.26458334)" gradientUnits="userSpaceOnUse" xlink:href="#linearGradient4886"/>
  <linearGradient id="linearGradient4865" x1="96.583733" x2="148.57768" y1="106.90627" y2="158.90022" gradientTransform="scale(.26458333)" gradientUnits="userSpaceOnUse" xlink:href="#linearGradient4886"/>
 </defs>
 <metadata>
  <rdf:RDF>
   <cc:Work rdf:about="">
    <dc:format>image/svg+xml</dc:format>
    <dc:type rdf:resource="http://purl.org/dc/dcmitype/StillImage"/>
    <dc:title/>
   </cc:Work>
  </rdf:RDF>
 </metadata>
 <g stroke-width=".26458332">
  <rect x="1.0583333" y="1.0583333" width="10.583333" height="10.583333" ry="1.8520839" fill="#2980b9" style="paint-order:markers fill stroke"/>
  <rect x="1.0583333" y="1.0583333" width="10.583333" height="10.318749" ry="1.8079867" fill="url(#linearGradient3861)" style="paint-order:markers fill stroke"/>
  <path transform="scale(.26458333)" d="m39.535156 33.705078c1.427335 1.425988 0 2.853516 0 2.853516l-2.234375 2.234375c-2.193735 2.193736-9.802268 0.002382-13.466797-3.66211l7.869141 7.869141h5.462891c3.172977 0 5.819572-2.144357 6.595703-5.066406l-4.226563-4.228516z" fill="url(#linearGradient4865)" opacity=".48200001" style="paint-order:normal"/>
 </g>
 <path d="m5.273159 3.7310126c0.3776498 0.3776493 0 0.754871 0 0.754871l-0.1886837 0.1886836c-0.3135807 0.3135807-0.3135804 0.8189314 0 1.1325116l0.7803024 0.7803022 0.1155344 0.1155346 0.7803024 0.7803019c0.3135803 0.313581 0.8189311 0.313581 1.1325113 0l0.1886841-0.1886834s0.3769342-0.3773105 0.7544606-2.8e-4l1.4e-4 -1.4e-4z" fill="url(#linearGradient4832)" opacity=".48200001" stroke-width=".07000434"/>
 <rect x="1.8551151" y="6.0670886" width=".15750976" height=".017501084" ry=".0087505421" fill="#fdbc4b" stroke-width=".26458332" style="paint-order:normal"/>
 <path d="m3.6497222 2.1075024c-0.3772926-0.377649-0.7548832 0-0.7548832 0l-0.5912028 0.5912029c-0.5804255 0.5804254-8.202e-4 2.5933061 0.968741 3.5628791l1.4591056 1.4591059 0.1155338 0.1155335 1.4591056 1.4591056c0.969573 0.9695726 2.9824537 1.5491666 3.5628791 0.9687416l0.5912027-0.5912032s0.377649-0.3775908 0-0.7548835l-1.6234631-1.6234632c-0.3776488-0.3776493-0.7548833 0-0.7548833 0l-0.1887209 0.1887207c-0.3135807 0.3135807-0.8189375 0.3135807-1.132518 3e-7l-0.7803105-0.7803102-0.1155335-0.1155335-0.7803102-0.7803105c-0.3135804-0.3135802-0.3135807-0.8189375 0-1.1325183l0.1887207-0.1887206s0.3776498-0.377234 0-0.7548833z" fill="url(#linearGradient4824)" stroke-width=".26458332"/>
 <flowRoot fill="#000000" font-family="sans-serif" font-size="10.583334px" letter-spacing="0px" stroke-width=".26458335" word-spacing="0px" style="line-height:1.25" xml:space="preserve"><flowRegion><rect x="-215.52615" y="-106.53525" width="190.08208" height="166.50893" stroke-width=".07000434"/></flowRegion><flowPara/></flowRoot>
</svg>
