<?xml version="1.0" encoding="UTF-8" standalone="no"?>
<!-- Created with Inkscape (http://www.inkscape.org/) -->

<svg
   xmlns:dc="http://purl.org/dc/elements/1.1/"
   xmlns:cc="http://creativecommons.org/ns#"
   xmlns:rdf="http://www.w3.org/1999/02/22-rdf-syntax-ns#"
   xmlns:svg="http://www.w3.org/2000/svg"
   xmlns="http://www.w3.org/2000/svg"
   xmlns:sodipodi="http://sodipodi.sourceforge.net/DTD/sodipodi-0.dtd"
   xmlns:inkscape="http://www.inkscape.org/namespaces/inkscape"
   width="11"
   height="17.0002"
   id="svg6567"
   version="1.1"
   inkscape:version="0.47pre4 r22446"
   sodipodi:docname="bat.svg">
  <defs
     id="defs6569">
    <inkscape:perspective
       sodipodi:type="inkscape:persp3d"
       inkscape:vp_x="0 : 526.18109 : 1"
       inkscape:vp_y="0 : 1000 : 0"
       inkscape:vp_z="744.09448 : 526.18109 : 1"
       inkscape:persp3d-origin="372.04724 : 350.78739 : 1"
       id="perspective6575" />
    <inkscape:perspective
       id="perspective6585"
       inkscape:persp3d-origin="0.5 : 0.33333333 : 1"
       inkscape:vp_z="1 : 0.5 : 1"
       inkscape:vp_y="0 : 1000 : 0"
       inkscape:vp_x="0 : 0.5 : 1"
       sodipodi:type="inkscape:persp3d" />
  </defs>
  <sodipodi:namedview
     id="base"
     pagecolor="#ffffff"
     bordercolor="#666666"
     borderopacity="1.0"
     inkscape:pageopacity="0.0"
     inkscape:pageshadow="2"
     inkscape:zoom="7.9195959"
     inkscape:cx="7.8611646"
     inkscape:cy="7.6271888"
     inkscape:document-units="px"
     inkscape:current-layer="layer1"
     showgrid="true"
     inkscape:window-width="951"
     inkscape:window-height="655"
     inkscape:window-x="195"
     inkscape:window-y="0"
     inkscape:window-maximized="0">
    <inkscape:grid
       type="xygrid"
       id="grid3588" />
  </sodipodi:namedview>
  <metadata
     id="metadata6572">
    <rdf:RDF>
      <cc:Work
         rdf:about="">
        <dc:format>image/svg+xml</dc:format>
        <dc:type
           rdf:resource="http://purl.org/dc/dcmitype/StillImage" />
        <dc:title />
      </cc:Work>
    </rdf:RDF>
  </metadata>
  <g
     inkscape:label="Layer 1"
     inkscape:groupmode="layer"
     id="layer1"
     transform="translate(-28.785714,-638.1478)">
    <path
       style="fill:#ffffff;fill-opacity:1;stroke:none;opacity:0.83248731"
       d="m 32.785664,638.148 c -0.554,0 -1,0.446 -1,1 l 0,0.031 0,1 5,0 0,-1.0312 c 0,-0.554 -0.446,-1 -1,-1 l -3,0 z m -2.96875,3 c -0.554,0 -1,0.446 -1,1 -0.016,-10e-5 -0.0146,0 -0.0312,0 l 0,10 c 0,1.662 1.338,3 3,3 l 5,0 c 1.662,0 3,-1.338 3,-3 l 0,-9.9688 0,-0.031 c 0,-0.554 -0.446,-1 -1,-1 l -0.96875,0 0,0.6875 c -0.0106,0 -0.0204,0 -0.0312,0 l 0,10.3125 c 0,0.554 -0.446,1 -1,1 l -5,0 c -0.554,0 -1,-0.446 -1,-1 l 0,-8.9688 c 3.4e-4,-0.011 0,-0.02 0,-0.031 l 0,-1.3125 0,-0.6875 -0.96875,0 z"
       id="path6530" />
    <rect
       style="opacity:1;fill:#ffffff;fill-opacity:1;stroke:none"
       id="rect3590"
       width="5"
       height="2"
       x="3"
       y="12.0002"
       transform="translate(28.785714,638.1478)" />
    <rect
       y="647.14801"
       x="31.785713"
       height="2"
       width="5"
       id="rect3592"
       style="opacity:1;fill:#ffffff;fill-opacity:1;stroke:none" />
    <rect
       style="opacity:1;fill:#ffffff;fill-opacity:1;stroke:none"
       id="rect3594"
       width="5"
       height="2"
       x="31.785713"
       y="644.14801" />
    <rect
       y="641.14801"
       x="31.785713"
       height="2"
       width="5"
       id="rect3596"
       style="opacity:1;fill:#ffffff;fill-opacity:1;stroke:none" />
  </g>
</svg>
