<?xml version="1.0" encoding="UTF-8" standalone="no"?>
<!-- Created with Inkscape (http://www.inkscape.org/) -->

<svg
   xmlns:dc="http://purl.org/dc/elements/1.1/"
   xmlns:cc="http://creativecommons.org/ns#"
   xmlns:rdf="http://www.w3.org/1999/02/22-rdf-syntax-ns#"
   xmlns:svg="http://www.w3.org/2000/svg"
   xmlns="http://www.w3.org/2000/svg"
   xmlns:sodipodi="http://sodipodi.sourceforge.net/DTD/sodipodi-0.dtd"
   xmlns:inkscape="http://www.inkscape.org/namespaces/inkscape"
   width="23"
   height="17.99996"
   id="svg6712"
   version="1.1"
   inkscape:version="0.47pre4 r22446"
   sodipodi:docname="New document 28">
  <defs
     id="defs6714">
    <inkscape:perspective
       sodipodi:type="inkscape:persp3d"
       inkscape:vp_x="0 : 526.18109 : 1"
       inkscape:vp_y="0 : 1000 : 0"
       inkscape:vp_z="744.09448 : 526.18109 : 1"
       inkscape:persp3d-origin="372.04724 : 350.78739 : 1"
       id="perspective6720" />
    <inkscape:perspective
       id="perspective6704"
       inkscape:persp3d-origin="0.5 : 0.33333333 : 1"
       inkscape:vp_z="1 : 0.5 : 1"
       inkscape:vp_y="0 : 1000 : 0"
       inkscape:vp_x="0 : 0.5 : 1"
       sodipodi:type="inkscape:persp3d" />
  </defs>
  <sodipodi:namedview
     id="base"
     pagecolor="#ffffff"
     bordercolor="#666666"
     borderopacity="1.0"
     inkscape:pageopacity="0.0"
     inkscape:pageshadow="2"
     inkscape:zoom="11.2"
     inkscape:cx="19.501101"
     inkscape:cy="10.976772"
     inkscape:document-units="px"
     inkscape:current-layer="layer1"
     showgrid="false"
     inkscape:window-width="1115"
     inkscape:window-height="473"
     inkscape:window-x="163"
     inkscape:window-y="0"
     inkscape:window-maximized="0" />
  <metadata
     id="metadata6717">
    <rdf:RDF>
      <cc:Work
         rdf:about="">
        <dc:format>image/svg+xml</dc:format>
        <dc:type
           rdf:resource="http://purl.org/dc/dcmitype/StillImage" />
        <dc:title></dc:title>
      </cc:Work>
    </rdf:RDF>
  </metadata>
  <g
     inkscape:label="Layer 1"
     inkscape:groupmode="layer"
     id="layer1"
     transform="translate(-182.97321,-666.21934)">
    <path
       transform="matrix(0.8,0,0,0.8,-3.52679,1212.2193)"
       d="m 250,-662.5 a 2.5,2.5 0 1 1 -5,0 2.5,2.5 0 1 1 5,0 z"
       sodipodi:ry="2.5"
       sodipodi:rx="2.5"
       sodipodi:cy="-662.5"
       sodipodi:cx="247.5"
       id="path6548"
       style="fill:#ffffff;fill-opacity:1;stroke:none"
       sodipodi:type="arc" />
    <path
       id="path6550"
       d="m 194.47316,674.21934 c -0.52116,0 -1.03787,0.061 -1.53125,0.1563 -0.22,0.043 -0.43977,0.095 -0.65625,0.1562 -0.27972,0.079 -0.54106,0.1712 -0.8125,0.2813 -0.15885,0.064 -0.31348,0.1437 -0.46875,0.2187 -0.0801,0.039 -0.17099,0.052 -0.25,0.094 -0.0333,0.018 -0.0608,0.045 -0.0937,0.062 -0.19835,0.1078 -0.4032,0.2179 -0.59375,0.3438 -0.0239,0.016 -0.0388,0.046 -0.0625,0.062 -0.19672,0.1329 -0.40692,0.2538 -0.59375,0.4062 -0.20978,0.1712 -0.40246,0.3712 -0.59375,0.5625 l 1.40625,1.4063 c 1.08579,-1.0858 2.59314,-1.75 4.25,-1.75 1.65686,0 3.16421,0.6642 4.25,1.75 l 1.40625,-1.4063 c -0.63173,-0.6317 -1.37396,-1.1384 -2.1875,-1.5312 -0.15527,-0.075 -0.3099,-0.1544 -0.46875,-0.2188 -0.2095,-0.085 -0.41039,-0.1523 -0.625,-0.2187 -0.0633,-0.02 -0.12351,-0.044 -0.1875,-0.062 -0.21648,-0.061 -0.43625,-0.1137 -0.65625,-0.1563 -0.24191,-0.047 -0.47419,-0.1006 -0.71875,-0.125 -0.0103,-0.001 -0.0209,0 -0.0312,0 -0.25497,-0.024 -0.52533,-0.031 -0.78125,-0.031 z"
       style="fill:#ffffff;fill-opacity:1;stroke:none" />
    <path
       id="path6552"
       d="m 194.47321,670.21934 c -1.24264,0 -2.43523,0.1806 -3.5625,0.5313 -0.75151,0.2337 -1.47612,0.5367 -2.15625,0.9062 -0.34006,0.1847 -0.6808,0.4094 -1,0.625 -0.6384,0.4313 -1.23836,0.8946 -1.78125,1.4375 l 1.4375,1.4375 c 1.80964,-1.8096 4.30107,-2.9375 7.0625,-2.9375 2.76143,0 5.25286,1.1279 7.0625,2.9375 l 1.4375,-1.4375 c -0.54289,-0.5429 -1.14285,-1.0062 -1.78125,-1.4375 -0.3192,-0.2156 -0.65994,-0.4403 -1,-0.625 -0.68013,-0.3695 -1.40474,-0.6725 -2.15625,-0.9062 -1.12727,-0.3507 -2.31986,-0.5313 -3.5625,-0.5313 z"
       style="fill:#ffffff;fill-opacity:1;stroke:none" />
    <path
       id="path6554"
       d="m 194.47321,666.21934 c -0.55229,0 -1.08713,0.039 -1.625,0.094 -0.53013,0.054 -1.07011,0.112 -1.59375,0.2188 -0.16941,0.035 -0.33259,0.085 -0.5,0.125 -0.34596,0.082 -0.69032,0.1757 -1.03125,0.2812 -0.0223,0.01 -0.0403,0.024 -0.0625,0.031 -0.47785,0.1509 -0.94896,0.3066 -1.40625,0.5 -0.41524,0.1748 -0.81649,0.3824 -1.21875,0.5938 -0.22473,0.1183 -0.438,0.2464 -0.65625,0.375 -0.69248,0.407 -1.36232,0.8549 -2,1.375 -0.426,0.3466 -0.83076,0.7057 -1.21875,1.0937 l 1.40625,1.4063 c 2.5335,-2.5335 6.04025,-4.0938 9.90625,-4.0938 3.866,0 7.37275,1.5603 9.90625,4.0938 l 1.40625,-1.4063 c -0.38799,-0.388 -0.79275,-0.7471 -1.21875,-1.0937 -0.3782,-0.3085 -0.75781,-0.6064 -1.15625,-0.875 -0.27328,-0.1847 -0.5588,-0.3322 -0.84375,-0.5 -0.21744,-0.1278 -0.43427,-0.2584 -0.65625,-0.375 -0.39575,-0.2084 -0.80428,-0.4185 -1.21875,-0.5938 -0.45729,-0.1934 -0.9284,-0.3491 -1.40625,-0.5 -0.022,-0.01 -0.0405,-0.024 -0.0625,-0.031 -0.33803,-0.1051 -0.68402,-0.1983 -1.03125,-0.2812 -0.16686,-0.04 -0.33218,-0.091 -0.5,-0.125 -0.52078,-0.1066 -1.05588,-0.1642 -1.59375,-0.2188 -0.53787,-0.055 -1.07271,-0.094 -1.625,-0.094 z"
       style="fill:#ffffff;fill-opacity:1;stroke:none" />
  </g>
</svg>
